<svg width="369" height="347" viewBox="0 0 369 347" fill="none" xmlns="http://www.w3.org/2000/svg">
<g clip-path="url(#clip0_3_19)">
<path d="M63.9477 176.345C-3.69 215.415 -3.69 278.757 63.9551 317.827C131.6 356.897 241.341 356.897 308.971 317.827C376.601 278.757 376.638 215.415 308.971 176.345C241.304 137.275 131.615 137.283 63.9477 176.345Z" fill="#FEFAE0"/>
<path d="M125.025 5.94073L127.423 7.28389V63.18L125.025 61.8442V5.94073Z" fill="#FAFAFA"/>
<path d="M125.025 61.8442V8.67134L28.1326 64.5453L28.1547 117.711L125.025 61.8442Z" fill="white"/>
<path d="M131.873 65.7556V-0.428207L23.6824 61.9771V128.154L131.873 65.7556ZM28.1326 120.441V64.5453L127.423 7.28389V63.18L28.1326 120.441Z" fill="#FEFAE0"/>
<path d="M127.423 63.18L125.025 61.8442L28.1547 117.711L28.1326 120.441L127.423 63.18Z" fill="#CCD5AE"/>
<path d="M23.6824 128.154L21.2987 126.766V60.5823L23.6824 61.9771V128.154Z" fill="#CCD5AE"/>
<path d="M21.2987 60.5823L23.6824 61.9771L131.873 -0.428203L129.489 -1.81564L21.2987 60.5823Z" fill="#CCD5AE"/>
<path d="M120.914 60.228V15.0329L33.4609 65.4531V110.656L120.914 60.228Z" fill="#F0F0F0"/>
<path d="M120.914 60.228V15.0329L33.4609 65.4531V110.656L120.914 60.228Z" fill="#F0F0F0"/>
<path d="M93.726 30.7375C94.7689 32.2871 95.6893 33.9156 96.4787 35.6083C99.3165 41.4957 101.319 47.7503 102.427 54.1912C103.276 59.1653 103.682 64.3977 106.065 68.811L120.951 60.228V54.11C118.273 53.2626 115.831 51.7991 113.822 49.837C108.331 44.2946 107.748 35.6969 104.641 28.5457C104.163 27.4604 103.623 26.4034 103.025 25.3797L93.726 30.7375Z" fill="#FAFAFA"/>
<path d="M74.6266 41.6895C76.7594 50.5455 79.3867 59.4015 76.9513 68.0508C74.9808 75.0028 69.955 80.6485 64.6931 85.6004C59.4311 90.5524 53.7116 95.1944 49.6895 101.165C49.6453 101.224 49.6157 101.29 49.5788 101.349L89.4308 78.3976C89.822 77.6079 90.2131 76.8183 90.5674 76.0065C94.4345 67.1505 95.8367 56.538 91.4382 47.9108C89.3718 43.8592 86.0951 40.3168 83.8589 36.4128L74.6266 41.6895Z" fill="#FAFAFA"/>
<path d="M52.0733 54.7152C50.3021 63.49 43.8667 71.3571 35.3797 74.3607C34.745 74.5895 34.1104 74.7814 33.4609 74.9585V92.3458C34.2875 91.7997 35.1214 91.2609 35.9627 90.7443C40.8631 87.7333 45.9995 84.9953 50.2209 81.0839C53.7482 77.7741 56.5232 73.7451 58.358 69.2695C60.1927 64.794 61.0445 59.9765 60.8555 55.1432C60.7711 53.421 60.549 51.7083 60.1913 50.0215L52.0733 54.7152Z" fill="#FAFAFA"/>
<path d="M257.85 180.308C236.832 192.441 236.832 212.108 257.85 224.249C278.868 236.389 312.942 236.381 333.96 224.249C354.978 212.116 354.978 192.441 333.96 180.308C312.942 168.175 278.868 168.131 257.85 180.308Z" fill="#E9EDC9"/>
<path d="M153.696 321.369L52.7818 263.067C51.3648 262.248 51.3648 260.92 52.7818 260.115L175.541 189.164C176.334 188.76 177.211 188.55 178.102 188.55C178.992 188.55 179.869 188.76 180.662 189.164L281.584 247.466C283.001 248.285 283.001 249.606 281.584 250.418L158.825 321.369C158.03 321.773 157.152 321.984 156.26 321.984C155.369 321.984 154.49 321.773 153.696 321.369Z" fill="#E9EDC9"/>
<path d="M78.3682 328.823L115.408 307.421C116.515 306.779 116.515 305.738 115.408 305.096L57.6747 271.82C57.0528 271.504 56.365 271.339 55.6673 271.339C54.9697 271.339 54.2819 271.504 53.66 271.82L16.6198 293.222C15.5128 293.864 15.5128 294.905 16.6198 295.547L74.3461 328.875C74.973 329.184 75.6643 329.341 76.3634 329.332C77.0625 329.323 77.7495 329.149 78.3682 328.823Z" fill="#E0E0E0"/>
<path d="M269.547 112.117C269.57 111.853 269.664 111.599 269.818 111.384C269.973 111.168 270.182 110.998 270.425 110.892C271.082 110.557 271.81 110.382 272.547 110.382C273.285 110.382 274.012 110.557 274.669 110.892C274.913 110.997 275.124 111.167 275.28 111.382C275.436 111.598 275.531 111.852 275.554 112.117L252.994 205.776C252.971 205.959 252.903 206.133 252.794 206.281C252.686 206.43 252.541 206.548 252.374 206.625C251.909 206.862 251.394 206.985 250.872 206.985C250.35 206.985 249.835 206.862 249.37 206.625C249.202 206.549 249.057 206.432 248.948 206.283C248.839 206.134 248.771 205.959 248.75 205.776L269.547 112.117Z" fill="#455A64"/>
<path d="M321.532 112.117C321.509 111.853 321.415 111.599 321.261 111.384C321.106 111.168 320.897 110.998 320.654 110.892C319.995 110.557 319.267 110.383 318.528 110.383C317.79 110.383 317.061 110.557 316.403 110.892C316.16 110.998 315.95 111.168 315.795 111.384C315.641 111.599 315.547 111.853 315.525 112.117L338.078 205.776C338.099 205.959 338.167 206.134 338.276 206.283C338.384 206.432 338.53 206.55 338.698 206.625C339.163 206.862 339.678 206.985 340.2 206.985C340.722 206.985 341.236 206.862 341.701 206.625C341.868 206.548 342.011 206.429 342.119 206.281C342.226 206.132 342.293 205.958 342.314 205.776V205.776L321.532 112.117Z" fill="#455A64"/>
<path d="M298.89 115.209C298.867 114.945 298.774 114.692 298.619 114.476C298.465 114.26 298.255 114.09 298.012 113.984C297.355 113.649 296.628 113.474 295.89 113.474C295.152 113.474 294.425 113.649 293.768 113.984C293.524 114.089 293.313 114.259 293.157 114.475C293.001 114.69 292.906 114.944 292.883 115.209L293.768 220.839C293.789 221.022 293.857 221.197 293.966 221.345C294.075 221.494 294.22 221.612 294.388 221.688C294.853 221.924 295.368 222.048 295.89 222.048C296.412 222.048 296.927 221.924 297.392 221.688C297.559 221.611 297.704 221.493 297.812 221.344C297.921 221.195 297.989 221.022 298.012 220.839V220.839L298.89 115.209Z" fill="#455A64"/>
<path d="M349.723 127.91H349.672C349.672 119.954 344.469 112.006 333.96 105.94C312.942 93.807 278.868 93.807 257.85 105.94C247.341 112.006 242.13 119.962 242.138 127.91H242.064V132.183C242.189 140.028 247.459 147.851 257.828 153.843C278.846 165.976 312.919 165.976 333.938 153.843C344.307 147.851 349.576 140.028 349.701 132.183L349.723 127.91Z" fill="#D4A373"/>
<path d="M257.85 105.918C236.832 118.05 236.832 137.725 257.85 149.858C278.868 161.991 312.942 161.991 333.96 149.858C354.978 137.725 354.978 118.05 333.96 105.918C312.942 93.7849 278.868 93.7849 257.85 105.918Z" fill="#D4A373"/>
<path opacity="0.45" d="M257.85 105.918C236.832 118.05 236.832 137.725 257.85 149.858C278.868 161.991 312.942 161.991 333.96 149.858C354.978 137.725 354.978 118.05 333.96 105.918C312.942 93.7849 278.868 93.7849 257.85 105.918Z" fill="white"/>
<g opacity="0.1">
<path d="M333.214 116.604C339.022 119.962 339.022 125.408 333.214 128.766C327.406 132.124 317.975 132.117 312.159 128.766C306.344 125.416 306.344 119.962 312.159 116.604C317.975 113.246 327.399 113.246 333.214 116.604Z" fill="black"/>
</g>
<path d="M313.421 123.43C308.351 118.264 305.377 105.364 310.322 101.29H335.451C340.395 105.394 337.421 118.264 332.358 123.43L332.218 123.571L332.048 123.74C331.901 123.881 331.753 124.013 331.591 124.146L331.465 124.242C331.34 124.338 331.222 124.441 331.082 124.53C330.873 124.682 330.656 124.823 330.432 124.951C326.262 127.357 319.51 127.357 315.347 124.951C315.126 124.825 314.912 124.685 314.691 124.53C314.469 124.375 314.454 124.353 314.336 124.257L314.189 124.146C314.026 124.013 313.879 123.881 313.746 123.748L313.547 123.556L313.421 123.43Z" fill="#EBEBEB"/>
<path d="M333.273 99.6151C339.008 102.921 339.008 108.294 333.273 111.6C327.539 114.906 318.24 114.914 312.506 111.6C306.772 108.287 306.772 102.921 312.506 99.6151C318.24 96.3088 327.539 96.3015 333.273 99.6151Z" fill="#FAFAFA"/>
<path d="M329.207 101.962C332.69 103.977 332.69 107.239 329.207 109.253C325.724 111.268 320.056 111.268 316.572 109.253C313.089 107.239 313.082 103.977 316.572 101.962C320.063 99.9472 325.716 99.9472 329.207 101.962Z" fill="#EBEBEB"/>
<path d="M316.602 105.423C320.085 103.408 325.746 103.408 329.237 105.423C330.08 105.882 330.797 106.541 331.325 107.342C330.794 108.139 330.077 108.795 329.237 109.253C325.746 111.268 320.085 111.268 316.602 109.253C315.758 108.796 315.039 108.14 314.506 107.342C315.035 106.539 315.755 105.88 316.602 105.423V105.423Z" fill="#E0E0E0"/>
<path d="M328.41 107.342C330.199 105.528 331.738 103.482 332.986 101.261C335.096 97.5708 335.48 92.5303 334.395 91.9177C333.31 91.3052 328.86 96.2867 328.86 96.2867C329.269 94.1899 329.425 92.0517 329.325 89.9178C329.141 86.5894 328.329 83.571 327.377 82.9584C326.425 82.3459 324.299 86.5451 323.384 89.6004C322.469 92.6557 321.908 95.1354 321.908 95.1354C321.543 92.7646 320.996 90.4255 320.27 88.1392C319.163 84.9879 318.159 84.2721 317.384 84.5894C316.609 84.9067 316.085 86.368 315.857 90.5746C315.777 92.579 315.841 94.5866 316.049 96.5819C316.049 96.5819 314.484 94.8624 312.742 93.1945C310.838 91.3569 310.019 91.1059 309.473 91.4528C308.927 91.7997 308.779 94.6557 311.731 100.006C313.2 102.739 315.082 105.228 317.31 107.386C317.31 107.386 321.443 109.977 328.41 107.342Z" fill="#D4A373"/>
<path opacity="0.3" d="M328.41 107.342C330.199 105.528 331.738 103.482 332.986 101.261C335.096 97.5708 335.48 92.5303 334.395 91.9177C333.31 91.3052 328.86 96.2867 328.86 96.2867C329.269 94.1899 329.425 92.0517 329.325 89.9178C329.141 86.5894 328.329 83.571 327.377 82.9584C326.425 82.3459 324.299 86.5451 323.384 89.6004C322.469 92.6557 321.908 95.1354 321.908 95.1354C321.543 92.7646 320.996 90.4255 320.27 88.1392C319.163 84.9879 318.159 84.2721 317.384 84.5894C316.609 84.9067 316.085 86.368 315.857 90.5746C315.777 92.579 315.841 94.5866 316.049 96.5819C316.049 96.5819 314.484 94.8624 312.742 93.1945C310.838 91.3569 310.019 91.1059 309.473 91.4528C308.927 91.7997 308.779 94.6557 311.731 100.006C313.2 102.739 315.082 105.228 317.31 107.386C317.31 107.386 321.443 109.977 328.41 107.342Z" fill="black"/>
<path d="M289.65 119.209C289.65 117.12 288.285 115.032 285.525 113.438C280.005 110.25 271.053 110.25 265.532 113.438C262.772 115.032 261.407 117.128 261.407 119.209V120.53C261.444 122.596 262.824 124.648 265.547 126.22C271.067 129.408 280.019 129.408 285.54 126.22C288.263 124.648 289.643 122.596 289.68 120.53L289.65 119.209Z" fill="#37474F"/>
<path d="M265.518 113.438C259.997 116.626 259.997 121.792 265.518 124.98C271.038 128.168 279.99 128.168 285.51 124.98C291.03 121.792 291.03 116.626 285.51 113.438C279.99 110.25 271.038 110.25 265.518 113.438Z" fill="#455A64"/>
<path d="M273.798 78.5083H277.333V117.268C277.34 117.438 277.296 117.606 277.204 117.75C277.113 117.894 276.981 118.006 276.824 118.072C276.437 118.272 276.008 118.377 275.573 118.377C275.138 118.377 274.709 118.272 274.322 118.072C274.165 118.007 274.033 117.894 273.943 117.75C273.853 117.606 273.81 117.438 273.82 117.268V117.268L273.798 78.5083Z" fill="#37474F"/>
<path d="M252.632 70.5084L263.429 42.981H287.695L298.484 70.5084C300.019 74.8109 297.908 79.4603 292.123 82.8034C282.979 88.0801 268.152 88.0801 259.008 82.8034C253.208 79.4603 251.097 74.8109 252.632 70.5084Z" fill="#D4A373"/>
<g opacity="0.4">
<path d="M252.632 70.5084L263.429 42.981H287.695L298.484 70.5084C300.019 74.8109 297.908 79.4603 292.123 82.8034C282.979 88.0801 268.152 88.0801 259.008 82.8034C253.208 79.4603 251.097 74.8109 252.632 70.5084Z" fill="white"/>
</g>
<path opacity="0.2" d="M264.573 75.7334C260.182 68.5969 265.805 55.0694 269.938 43.7928V42.981H263.422L252.625 70.5084C251.09 74.8109 253.2 79.4603 258.986 82.8034C268.13 88.0801 282.957 88.0801 292.1 82.8034C283.842 86.0433 268.971 82.892 264.573 75.7334Z" fill="#D4A373"/>
<path d="M284.329 49.5713C279.481 52.3757 271.621 52.3757 266.772 49.5713C261.924 46.7669 261.924 42.2356 266.772 39.4386C271.621 36.6415 279.481 36.6342 284.329 39.4386C289.178 42.243 289.178 46.7743 284.329 49.5713Z" fill="#D4A373"/>
<g opacity="0.6">
<path d="M284.329 49.5713C279.481 52.3757 271.621 52.3757 266.772 49.5713C261.924 46.7669 261.924 42.2356 266.772 39.4386C271.621 36.6415 279.481 36.6342 284.329 39.4386C289.178 42.243 289.178 46.7743 284.329 49.5713Z" fill="white"/>
</g>
<path d="M275.554 50.2355C278.358 50.2998 281.131 49.6416 283.606 48.3241C285.488 47.2392 286.558 45.8813 286.558 44.5086C286.558 43.1359 285.517 41.7706 283.606 40.6858C281.107 39.4287 278.348 38.774 275.551 38.774C272.753 38.774 269.995 39.4287 267.495 40.6858C265.614 41.7706 264.543 43.1286 264.543 44.5086C264.543 45.8887 265.584 47.2392 267.495 48.3241C269.973 49.6425 272.749 50.3008 275.554 50.2355V50.2355Z" fill="#D4A373"/>
<path d="M157.098 315.392L158.803 290.971L170.633 284.145L163.866 311.488L157.098 315.392Z" fill="#B16668"/>
<path d="M157.098 315.392L150.338 311.487L150.463 286.159L158.803 290.971L157.098 315.392Z" fill="#9A4A4D"/>
<path d="M74.2133 267.547L75.9181 243.127L87.7408 236.3L80.9807 263.643L74.2133 267.547Z" fill="#B16668"/>
<path d="M74.2133 267.547L67.4458 263.643L67.5787 238.315L75.9181 243.127L74.2133 267.547Z" fill="#9A4A4D"/>
<path d="M271.385 249.414L269.68 226.964L257.85 233.791L264.617 253.326L271.385 249.414Z" fill="#B16668"/>
<path d="M264.617 253.326L257.85 249.414L249.51 228.979L257.85 233.798L264.617 253.326Z" fill="#9A4A4D"/>
<path d="M157.098 289.99L272.484 223.378V231.193L157.098 297.798V289.99Z" fill="#B16668"/>
<path d="M62.3758 243.112L157.098 297.798V289.99L62.3758 235.304V243.112Z" fill="#9A4A4D"/>
<path d="M157.098 289.99L272.484 223.378L177.762 168.692L62.3758 235.304L157.098 289.99Z" fill="#9A4A4D"/>
<path d="M272.61 175.282V216.551C272.61 220.75 269.658 225.916 265.968 228.005L264.056 229.119L263.96 229.164C261.402 230.422 258.535 230.917 255.702 230.588L172.308 274.927C172.124 279.023 169.268 283.864 165.77 285.923H165.711L163.806 287.03C163.646 287.134 163.475 287.22 163.297 287.288C163.21 287.342 163.119 287.389 163.024 287.429C163.024 287.429 162.965 287.429 162.95 287.429C159.69 288.784 156.056 288.951 152.685 287.901C152.294 287.784 151.912 287.641 151.541 287.473L151.356 287.399C151.083 287.274 150.825 287.141 150.574 287.001L64.5307 237.385C60.885 235.274 57.8887 230.13 57.8887 225.931V136.53C57.8887 132.331 60.8407 127.179 64.5307 125.076L166.722 66.0361C170.412 63.9254 176.316 63.9254 179.954 66.0361L185.341 69.1357C188.98 71.2464 192.419 76.3607 192.965 80.5304L198.131 124.663L265.983 163.843C269.628 165.917 272.61 171.083 272.61 175.282Z" fill="#D4A373"/>
<path d="M185.327 69.1283L179.947 66.0213C176.257 63.9106 170.353 63.9106 166.714 66.0213L64.5233 125.061C64.1396 125.283 63.7189 125.578 63.8444 125.489C60.6593 127.89 58.5529 131.453 57.9847 135.401C58.4717 132.021 61.2171 130.803 64.516 132.7L69.9107 135.807C73.6007 137.917 79.5047 137.917 83.1431 135.807L185.327 76.7666C188.98 74.6559 188.98 71.239 185.327 69.1283Z" fill="#E8B788"/>
<path d="M272.61 175.282V216.551C272.61 220.75 269.658 225.916 265.968 228.005L264.056 229.119L263.96 229.164C261.574 230.386 258.887 230.898 256.219 230.64C254.332 230.533 252.491 230.017 250.824 229.127L189.57 193.762C185.932 191.673 182.928 186.507 182.928 182.308V141.032C182.928 136.832 185.88 131.666 189.57 129.578L198.079 124.648L265.931 163.828C269.628 165.917 272.61 171.083 272.61 175.282Z" fill="#D4A373"/>
<path d="M198.146 124.648L189.666 129.571C186.028 131.674 186.028 135.113 189.666 137.209L250.92 172.559C254.558 174.662 257.562 179.814 257.562 184.013V225.326C257.562 229.525 260.514 231.23 264.204 229.141L266.108 228.034C269.746 225.939 272.75 220.78 272.75 216.581V175.275C272.75 171.076 269.798 165.917 266.108 163.821L198.146 124.648Z" fill="#E8B788"/>
<path d="M257.473 183.998V225.326C257.473 229.525 260.425 231.23 264.115 229.141L266.019 228.034C269.658 225.939 272.661 220.78 272.661 216.581V175.275C272.579 172.973 271.911 170.73 270.721 168.758L255.592 177.504C256.758 179.475 257.405 181.709 257.473 183.998Z" fill="#D4A373"/>
<path d="M254.721 230.632C254.085 231.949 253.273 233.173 252.307 234.271C250.898 235.843 247.879 237.569 246.079 238.625C222.817 252.064 203.577 263.208 180.308 276.639C179.28 277.165 178.142 277.438 176.987 277.438C175.833 277.438 174.694 277.165 173.666 276.639L152.19 264.219L109.158 239.385C105.512 237.274 102.516 232.359 102.516 228.403C102.516 224.448 105.468 219.547 109.158 217.415L133.578 203.319L152.198 192.581L174.906 179.43C176.958 178.396 179.224 177.858 181.522 177.858C183.82 177.858 186.086 178.396 188.138 179.43L249.355 214.787C253.045 216.898 255.997 218.529 255.997 223.378C255.938 224.92 255.481 229.016 254.721 230.632Z" fill="#D4A373"/>
<path d="M180.316 262.315L252.64 220.507C254.47 219.459 255.946 220.308 255.946 222.418V229.112C255.884 230.259 255.553 231.376 254.978 232.371C254.404 233.366 253.603 234.212 252.64 234.839L180.316 276.639C178.485 277.694 177.002 276.838 177.009 274.735V268.041C177.073 266.895 177.405 265.779 177.98 264.784C178.554 263.789 179.354 262.943 180.316 262.315V262.315Z" fill="#E8B788"/>
<path d="M174.124 156.072L109.18 193.622C105.527 195.732 102.538 200.861 102.538 205.075V209.503C102.538 213.725 105.49 218.854 109.18 220.957L170.434 256.307C174.124 258.418 180.028 258.418 183.666 256.307L248.61 218.758C252.263 216.655 255.252 211.525 255.252 207.304V202.876C255.252 198.655 252.3 193.526 248.61 191.422L187.356 156.072C183.696 153.961 177.777 153.961 174.124 156.072Z" fill="#E8B788"/>
<path d="M177.009 238.182V257.916C174.696 257.967 172.408 257.42 170.367 256.329L109.113 220.987C105.468 218.876 102.471 213.747 102.471 209.525V205.097C102.471 201.142 105.084 196.389 108.412 194.064C105.46 196.19 105.682 199.304 109.084 201.275L170.338 236.625C172.392 237.706 174.689 238.242 177.009 238.182V238.182Z" fill="#D4A373"/>
<path d="M183.622 236.61L248.566 199.061C252.219 196.95 252.219 193.526 248.566 191.422L187.312 156.072C183.622 153.961 177.718 153.961 174.087 156.072L109.143 193.622C105.49 195.732 105.49 199.149 109.143 201.26L170.397 236.61C174.043 238.713 179.969 238.713 183.622 236.61Z" fill="#D4A373"/>
<path d="M139.74 121.46C135.504 121.039 131.999 125.888 124.936 129.371C111.785 135.807 105.859 141.659 99.7333 148.803C93.6079 155.947 91.2906 154.707 89.4013 159.179C87.512 163.651 92.7002 165.541 95.1725 171.851C99.3274 182.492 104.493 189.636 109.881 194.072C119.379 201.902 117.925 207.356 122.25 207.297C126.855 207.245 126.523 203.297 133.755 200.485C150.877 193.843 157.902 187.939 165.814 176.205C168.906 171.629 172.84 172.013 173.592 167.6C173.961 165.386 170.751 164.205 167.851 157.268C163.039 145.755 155.349 134.951 147.858 129.342C144.604 126.899 144.05 121.888 139.74 121.46Z" fill="#D4A373"/>
<path opacity="0.3" d="M139.74 121.46C135.504 121.039 131.999 125.888 124.936 129.371C111.785 135.807 105.859 141.659 99.7333 148.803C93.6079 155.947 91.2906 154.707 89.4013 159.179C87.512 163.651 92.7002 165.541 95.1725 171.851C99.3274 182.492 104.493 189.636 109.881 194.072C119.379 201.902 117.925 207.356 122.25 207.297C126.855 207.245 126.523 203.297 133.755 200.485C150.877 193.843 157.902 187.939 165.814 176.205C168.906 171.629 172.84 172.013 173.592 167.6C173.961 165.386 170.751 164.205 167.851 157.268C163.039 145.755 155.349 134.951 147.858 129.342C144.604 126.899 144.05 121.888 139.74 121.46Z" fill="black"/>
<path opacity="0.2" d="M94.0802 166.596C97.6964 171.762 97.2167 176.839 104.656 186.264C111.8 195.312 116.973 197.85 119.113 201.917C120.892 205.289 123.32 206.869 123.903 202.92C124.486 198.972 121.379 187.688 114.176 178.02C105.888 166.899 100.597 162.64 97.0175 161.046C91.4087 158.448 91.2316 162.596 94.0802 166.596Z" fill="black"/>
<path opacity="0.2" d="M134.065 196.131C129.342 197.762 129.135 201.954 126.766 205.186C128.715 203.106 131.113 201.498 133.777 200.485C141.578 197.452 147.283 194.581 151.925 191.23C145.88 194.419 137.497 194.95 134.065 196.131ZM163.644 174.404C160.692 177.105 161.002 181.902 157.482 186.529C160.605 183.374 163.404 179.912 165.836 176.197C168.663 172.02 172.183 171.969 173.341 168.633C170.751 171.917 167.164 171.179 163.644 174.404Z" fill="black"/>
<path opacity="0.3" d="M133.851 131.652C123.77 133.541 113.689 138.736 106.752 146.493C105.389 148.121 104.726 150.222 104.907 152.338C104.993 153.659 105.412 154.937 106.124 156.053C106.836 157.169 107.819 158.087 108.98 158.722C111.349 160.057 114.818 160.065 117.29 159.747C122.508 159.076 125.585 157.71 132.331 157.607C134.812 157.629 137.252 158.247 139.445 159.408C142.773 161.26 145.261 163.349 148.176 164.913C152.19 167.061 159.319 166.079 161.792 163.6C164.434 160.958 165.032 156.958 162.663 151.998C157.408 140.928 147.6 130.124 133.851 131.652Z" fill="#D4A373"/>
<path d="M157.194 283.244V241.968C157.194 237.769 154.242 232.61 150.552 230.514L82.7298 191.378L77.5638 147.253C77.0103 143.083 73.5786 137.962 69.9403 135.858L64.5529 132.751C60.9219 130.648 57.9109 132.368 57.9109 136.567V225.931C57.9109 230.13 60.8629 235.282 64.5529 237.385L150.552 287.067C154.242 289.163 157.194 287.443 157.194 283.244Z" fill="#D4A373"/>
<path d="M172.323 233.215V274.499C172.33 274.642 172.33 274.784 172.323 274.927C172.138 279.023 169.282 283.864 165.784 285.923H165.725L163.821 287.03C163.661 287.134 163.49 287.22 163.312 287.288C163.225 287.342 163.134 287.389 163.039 287.429C163.039 287.429 162.98 287.429 162.965 287.429C162.79 287.506 162.61 287.572 162.426 287.628C159.299 288.769 155.886 288.865 152.7 287.901C152.309 287.784 151.927 287.641 151.556 287.473C154.729 288.787 157.194 287.001 157.209 283.2V241.968C157.209 237.769 154.257 232.61 150.567 230.514L138.567 223.577L82.7298 191.378L91.2611 186.441C94.892 184.352 100.855 184.352 104.486 186.441L153.718 214.869L165.711 221.791C169.356 223.85 172.323 229.016 172.323 233.215Z" fill="#E8B788"/>
<path d="M157.194 241.968V283.259C157.194 287.06 154.714 288.846 151.541 287.532C151.912 287.7 152.294 287.843 152.685 287.96C155.871 288.924 159.284 288.828 162.412 287.687C162.595 287.631 162.775 287.565 162.95 287.488C162.95 287.488 162.995 287.488 163.024 287.488C163.119 287.448 163.21 287.402 163.297 287.348C163.475 287.279 163.646 287.193 163.806 287.089L165.711 285.982H165.77C169.268 283.923 172.124 279.082 172.308 274.986C172.316 274.843 172.316 274.701 172.308 274.558V233.215C172.229 230.915 171.561 228.674 170.367 226.706L155.231 235.451C156.43 237.421 157.106 239.664 157.194 241.968V241.968Z" fill="#E8B788"/>
<g opacity="0.2">
<path d="M82.7298 191.378C84.8331 190.116 89.3718 187.378 91.4308 186.212C93.4839 185.186 95.7488 184.655 98.044 184.661C100.339 184.668 102.601 185.211 104.648 186.249C117.792 193.703 141.305 207.297 154.36 214.928L166.006 221.776C167.884 223.062 169.434 224.771 170.532 226.766C171.629 228.76 172.243 230.984 172.323 233.259C172.176 231.021 171.513 228.848 170.385 226.909C169.256 224.971 167.694 223.32 165.821 222.086L154.08 215.444C140.914 207.939 117.431 194.389 104.39 186.721C102.416 185.695 100.23 185.139 98.0054 185.096C95.7804 185.054 93.5757 185.527 91.5637 186.478C89.4899 187.599 84.8331 190.256 82.7077 191.415L82.7298 191.378Z" fill="white"/>
</g>
<path d="M211.592 225.326L223.4 210.249L241.378 223.769C229.223 231.835 215.835 241.916 212.529 245.835C212.529 245.835 202.278 241.355 201.673 235.569C201.068 229.784 208.36 226.566 211.592 225.326Z" fill="#C8856A"/>
<path d="M198.249 229.525C197.154 230.029 196.172 230.749 195.363 231.643C194.47 232.536 193.71 237.547 192.603 239.702C191.496 241.857 190.862 242.389 189.194 245.06C187.349 248.012 184.515 250.492 185.445 259.208C186.375 267.923 189.688 272.639 192.736 275.318C193.886 276.236 195.241 276.864 196.684 277.148C196.684 277.148 201.533 276.329 201.363 273.525C201.194 270.72 198.249 229.525 198.249 229.525Z" fill="#D4A373"/>
<path d="M216.234 242.433C215.939 243.252 214.5 244.322 213.887 244.92C211.813 246.927 210.448 249.916 209.348 252.558C204.131 265.03 207.998 272.654 200.042 276.174C197.762 277.052 193.629 275.879 188.847 266.425C186.404 261.599 186.234 252.625 188.279 248.979C190.323 245.333 192.559 243.134 193.969 240.3C195.378 237.466 196.057 231.791 198.219 229.547C199.578 228.304 201.2 227.383 202.965 226.854C204.352 226.344 207.26 225.88 208.67 225.378C210.079 224.876 210.935 224.226 211.562 225.304L209.777 226.802C206.876 229.51 207.422 230.101 207.149 231.791C206.876 233.481 205.909 235.296 205.245 236.957C207.267 235.23 208.286 233.569 209.991 234.234C211.695 234.898 211.931 234.854 213.998 237.732C216.064 240.61 216.522 241.702 216.234 242.433Z" fill="#D4A373"/>
<path opacity="0.4" d="M216.234 242.433C215.939 243.252 214.5 244.322 213.887 244.92C211.813 246.927 210.448 249.916 209.348 252.558C204.131 265.03 207.998 272.654 200.042 276.174C197.762 277.052 193.629 275.879 188.847 266.425C186.404 261.599 186.234 252.625 188.279 248.979C190.323 245.333 192.559 243.134 193.969 240.3C195.378 237.466 196.057 231.791 198.219 229.547C199.578 228.304 201.2 227.383 202.965 226.854C204.352 226.344 207.26 225.88 208.67 225.378C210.079 224.876 210.935 224.226 211.562 225.304L209.777 226.802C206.876 229.51 207.422 230.101 207.149 231.791C206.876 233.481 205.909 235.296 205.245 236.957C207.267 235.23 208.286 233.569 209.991 234.234C211.695 234.898 211.931 234.854 213.998 237.732C216.064 240.61 216.522 241.702 216.234 242.433Z" fill="black"/>
<path opacity="0.3" d="M188.876 266.403C186.434 261.577 186.264 252.602 188.308 248.957C188.979 247.754 189.718 246.591 190.522 245.473C190.411 245.724 190.279 245.983 190.205 246.211C190.02 246.706 189.858 247.193 189.71 247.687C189.021 249.619 188.843 251.696 189.194 253.717C189.614 255.481 190.507 259.879 192.677 260.396C193.909 260.691 195.194 259.658 195.939 258.396C196.256 257.85 196.898 256.337 196.898 256.337C198.814 257.198 200.58 258.359 202.131 259.776C204.891 262.499 204.684 262.942 204.684 262.942C204.315 263.822 204.095 264.757 204.035 265.709C204.018 266.746 204.235 267.772 204.67 268.713C204.862 269.008 205.09 269.278 205.349 269.517C204.611 272.469 203.378 274.683 200.042 276.159C197.784 277.03 193.659 275.857 188.876 266.403Z" fill="black"/>
<path d="M209.378 252.558C208.02 255.841 207.062 259.275 206.522 262.787C204.67 265.879 203.644 265.577 203.843 263.82C204.042 262.064 207.74 255.363 210.618 249.798C210.16 250.713 209.754 251.658 209.378 252.558Z" fill="#37474F"/>
<path d="M205.57 230.153C205.76 228.439 206.543 226.847 207.784 225.651C208.123 225.562 208.448 225.474 208.706 225.392C210.227 224.883 210.972 224.241 211.599 225.319L209.777 226.802C206.876 229.51 207.422 230.101 207.149 231.791C206.876 233.481 205.909 235.296 205.245 236.957C202.81 242.337 201.23 243.99 199.555 249.193C197.88 254.396 198.242 258.197 197.43 258.352C196.618 258.506 195.216 257.614 195.784 253.274C196.352 248.935 199.644 242.138 201.644 238.994C203.644 235.85 205.393 232.485 205.57 230.153Z" fill="#37474F"/>
<path d="M196.478 256.625C196.537 256.716 196.622 256.788 196.721 256.831C200.315 258.307 202.123 259.673 204.264 263.473C204.336 263.596 204.454 263.686 204.591 263.725C204.729 263.763 204.876 263.747 205.002 263.68C205.126 263.609 205.217 263.491 205.256 263.353C205.295 263.215 205.278 263.067 205.208 262.942C202.943 258.898 200.957 257.4 197.142 255.798C197.075 255.766 197.001 255.747 196.926 255.745C196.852 255.742 196.777 255.755 196.708 255.783C196.639 255.811 196.576 255.853 196.523 255.906C196.471 255.96 196.43 256.023 196.404 256.093C196.367 256.18 196.355 256.276 196.368 256.369C196.381 256.463 196.419 256.551 196.478 256.625V256.625Z" fill="#EBEBEB"/>
<path d="M198.028 252.315C198.086 252.402 198.168 252.471 198.264 252.514C201.954 254.174 203.895 255.695 206.168 259.732C206.238 259.857 206.354 259.95 206.493 259.99C206.631 260.03 206.779 260.014 206.906 259.946C207.027 259.872 207.117 259.755 207.156 259.618C207.196 259.482 207.183 259.335 207.12 259.208C204.714 254.957 202.618 253.304 198.699 251.525C198.564 251.465 198.411 251.461 198.272 251.513C198.134 251.566 198.022 251.671 197.961 251.805C197.93 251.889 197.919 251.98 197.931 252.068C197.942 252.157 197.976 252.242 198.028 252.315V252.315Z" fill="#EBEBEB"/>
<path d="M198.898 247.4C198.961 247.497 199.05 247.575 199.157 247.621C203.23 249.451 205.481 251.267 208.013 255.739C208.095 255.88 208.228 255.984 208.385 256.028C208.543 256.072 208.711 256.053 208.854 255.975C208.924 255.936 208.986 255.883 209.036 255.82C209.086 255.757 209.122 255.684 209.144 255.606C209.165 255.529 209.171 255.447 209.16 255.368C209.15 255.288 209.123 255.211 209.083 255.141C206.441 250.462 204.005 248.462 199.688 246.521C199.568 246.475 199.436 246.467 199.311 246.5C199.186 246.533 199.075 246.604 198.993 246.704C198.911 246.804 198.863 246.927 198.855 247.056C198.847 247.185 198.881 247.313 198.95 247.422L198.898 247.4Z" fill="#EBEBEB"/>
<path d="M200.433 243.355C200.495 243.451 200.582 243.528 200.684 243.577C204.684 245.363 206.854 247.112 209.319 251.488C209.401 251.624 209.531 251.723 209.683 251.765C209.835 251.808 209.998 251.79 210.138 251.717C210.207 251.678 210.268 251.627 210.317 251.565C210.366 251.503 210.402 251.431 210.424 251.355C210.445 251.279 210.451 251.199 210.441 251.121C210.431 251.042 210.406 250.966 210.367 250.898C207.784 246.307 205.415 244.374 201.179 242.477C201.033 242.412 200.867 242.408 200.718 242.464C200.569 242.521 200.448 242.634 200.382 242.78C200.34 242.872 200.323 242.973 200.332 243.074C200.341 243.175 200.376 243.272 200.433 243.355Z" fill="#EBEBEB"/>
<path d="M202.766 239.584C202.828 239.682 202.918 239.759 203.024 239.806C207.016 241.599 209.186 243.341 211.658 247.717C211.739 247.854 211.869 247.954 212.022 247.997C212.175 248.039 212.338 248.021 212.478 247.946C212.616 247.867 212.717 247.736 212.76 247.583C212.803 247.43 212.784 247.266 212.706 247.127C210.109 242.536 207.747 240.61 203.511 238.706C203.439 238.674 203.362 238.656 203.283 238.654C203.205 238.652 203.127 238.666 203.053 238.694C202.98 238.722 202.913 238.764 202.856 238.818C202.799 238.872 202.753 238.937 202.721 239.009C202.679 239.1 202.66 239.201 202.668 239.302C202.676 239.403 202.709 239.5 202.766 239.584Z" fill="#EBEBEB"/>
<path d="M198.662 155.496C198.891 158.876 218.241 164.537 233.097 168.736C250.152 173.563 258.322 177.172 264.758 183.216C268.388 186.633 270.566 191.031 269.717 196.788C269.097 200.979 265.739 207.858 258.034 214.381C243.429 226.802 236.241 229.754 225.894 236.994C225.894 236.994 214.824 230.204 212.832 221.961L227.363 204.913L183.614 193.592L198.662 155.496Z" fill="#D4A373"/>
<path opacity="0.4" d="M198.662 155.496C198.891 158.876 218.241 164.537 233.097 168.736C250.152 173.563 258.322 177.172 264.758 183.216C268.388 186.633 270.566 191.031 269.717 196.788C269.097 200.979 265.739 207.858 258.034 214.381C243.429 226.802 236.241 229.754 225.894 236.994C225.894 236.994 214.824 230.204 212.832 221.961L227.363 204.913L183.614 193.592L198.662 155.496Z" fill="white"/>
<path opacity="0.5" d="M234.145 221.171C235.053 224.197 236.551 229.621 236.566 230.027C233.916 231.695 228.81 234.935 225.894 236.964C225.894 236.964 214.824 230.175 212.832 221.931L225.562 207.001C230.175 211.304 231.732 213.186 234.145 221.171Z" fill="#D4A373"/>
<path opacity="0.5" d="M231.481 195.658C227.843 199.083 226.367 198.891 218.935 197.452L216.057 196.883L200.301 184.337C202.042 178.552 202.699 174.005 200.758 169.179L193.636 163.4L183.614 193.592L188.972 194.987L227.348 204.935C232.632 198.086 238.285 191.651 243.784 190.81C240.138 190.064 236.536 190.898 231.481 195.658Z" fill="#D4A373"/>
<path d="M234.226 292.122L221.311 270.034L242.713 256.595C247.761 270.469 251.673 286.934 255.636 292.55C255.636 292.55 249.68 302.72 243.193 301.849C236.706 300.978 234.75 295.908 234.226 292.122Z" fill="#C8856A"/>
<path d="M235.71 303.901C235.987 305.21 236.524 306.449 237.289 307.547C238.027 308.735 243.304 310.868 245.407 312.624C247.51 314.38 247.894 315.192 250.381 317.679C253.134 320.439 255.112 324.115 264.883 325.421C274.787 326.749 280.676 324.439 284.396 321.886C285.689 320.903 286.723 319.618 287.407 318.144C287.407 318.144 287.768 312.75 284.661 312.189C281.554 311.628 235.71 303.901 235.71 303.901Z" fill="#D4A373"/>
<path d="M254.485 288.056C255.304 288.58 256.101 290.403 256.595 291.222C258.256 293.967 261.178 296.211 263.776 298.085C276.078 306.941 285.414 304.838 287.185 314.27C287.562 316.934 285.2 321.045 273.628 323.657C267.724 324.993 257.865 322.801 254.44 319.657C251.016 316.513 249.156 313.539 246.418 311.281C243.68 309.023 237.651 306.809 235.747 303.901C234.632 302.196 234.271 300.093 234.027 298.122C233.828 296.499 233.474 291.008 233.474 291.008C235.688 294.823 238.78 294.255 240.558 295.001C242.337 295.746 244.071 297.215 245.724 298.403C244.359 295.775 242.809 294.255 243.975 292.602C245.141 290.949 245.149 290.698 248.839 289.244C252.529 287.79 253.754 287.584 254.485 288.056Z" fill="#D4A373"/>
<path opacity="0.4" d="M254.485 288.056C255.304 288.58 256.101 290.403 256.595 291.222C258.256 293.967 261.178 296.211 263.776 298.085C276.078 306.941 285.414 304.838 287.185 314.27C287.562 316.934 285.2 321.045 273.628 323.657C267.724 324.993 257.865 322.801 254.44 319.657C251.016 316.513 249.156 313.539 246.418 311.281C243.68 309.023 237.651 306.809 235.747 303.901C234.632 302.196 234.271 300.093 234.027 298.122C233.828 296.499 233.474 291.008 233.474 291.008C235.688 294.823 238.78 294.255 240.558 295.001C242.337 295.746 244.071 297.215 245.724 298.403C244.359 295.775 242.809 294.255 243.975 292.602C245.141 290.949 245.149 290.698 248.839 289.244C252.529 287.79 253.754 287.584 254.485 288.056Z" fill="black"/>
<path opacity="0.3" d="M273.628 323.657C267.724 324.993 257.865 322.801 254.44 319.657C253.301 318.615 252.221 317.509 251.208 316.344C251.459 316.521 251.702 316.735 251.946 316.875C252.433 317.192 252.935 317.502 253.422 317.79C255.37 318.912 257.592 319.908 259.887 319.93C261.924 319.93 266.964 320.159 268.093 317.975C268.735 316.735 267.968 315.096 266.743 313.96C266.233 313.473 264.743 312.388 264.743 312.388C266.184 310.563 267.911 308.983 269.857 307.709C273.547 305.495 273.975 305.812 273.975 305.812C274.817 306.435 275.754 306.918 276.75 307.244C277.88 307.525 279.058 307.563 280.204 307.355C280.574 307.227 280.929 307.056 281.259 306.845C284.329 308.395 286.425 310.314 287.163 314.27C287.554 316.934 285.2 321.045 273.628 323.657Z" fill="black"/>
<path d="M263.776 298.085C267.024 300.408 270.534 302.34 274.233 303.842C277.134 306.639 276.536 307.657 274.669 306.978C272.802 306.299 266.418 300.602 261.068 296.026C261.99 296.764 262.89 297.451 263.776 298.085Z" fill="#37474F"/>
<path d="M238.293 296.248C236.507 295.672 235.068 295.443 233.71 294.24C232.839 293.502 232.809 291.17 233.097 290.189L234.308 292.24C236.758 294.085 238.736 294.255 240.522 295.001C242.308 295.746 244.034 297.215 245.688 298.403C250.95 302.425 252.33 304.55 257.606 307.716C262.883 310.882 267.156 311.495 267.09 312.41C267.023 313.325 265.695 314.58 261.112 312.831C256.529 311.082 249.924 305.768 247.009 302.816C244.094 299.864 240.795 297.052 238.293 296.248Z" fill="#37474F"/>
<path d="M264.898 312.949C265.013 312.912 265.114 312.84 265.186 312.742C267.761 309.303 269.687 307.724 274.425 306.447C274.578 306.404 274.708 306.302 274.787 306.164C274.866 306.026 274.887 305.863 274.846 305.709C274.8 305.558 274.697 305.431 274.56 305.355C274.422 305.278 274.261 305.256 274.108 305.296C269.097 306.646 266.957 308.373 264.211 312.034C264.138 312.139 264.1 312.265 264.103 312.393C264.106 312.521 264.15 312.645 264.228 312.747C264.306 312.849 264.414 312.923 264.537 312.96C264.66 312.996 264.792 312.992 264.912 312.949H264.898Z" fill="#EBEBEB"/>
<path d="M260.58 310.152C260.693 310.114 260.793 310.045 260.868 309.952C263.636 306.447 265.791 304.786 270.802 303.414C270.879 303.394 270.951 303.359 271.014 303.311C271.077 303.263 271.129 303.203 271.169 303.134C271.208 303.065 271.233 302.989 271.242 302.91C271.251 302.832 271.245 302.752 271.222 302.676C271.176 302.525 271.074 302.397 270.937 302.319C270.8 302.241 270.638 302.218 270.484 302.255C265.208 303.731 262.839 305.502 259.901 309.222C259.815 309.33 259.767 309.465 259.767 309.604C259.766 309.743 259.811 309.878 259.897 309.988C259.982 310.097 260.101 310.175 260.236 310.209C260.371 310.243 260.513 310.231 260.639 310.174L260.58 310.152Z" fill="#EBEBEB"/>
<path d="M255.429 307.93C255.552 307.885 255.661 307.808 255.747 307.709C258.794 303.834 261.363 301.916 266.876 300.41C266.962 300.388 267.044 300.349 267.115 300.294C267.186 300.24 267.245 300.172 267.289 300.094C267.334 300.016 267.362 299.93 267.372 299.841C267.382 299.752 267.374 299.662 267.348 299.576C267.287 299.407 267.167 299.265 267.009 299.178C266.852 299.091 266.668 299.065 266.492 299.104C260.691 300.698 257.887 302.794 254.647 306.875C254.593 306.946 254.554 307.027 254.531 307.114C254.509 307.2 254.504 307.29 254.516 307.379C254.528 307.467 254.558 307.552 254.603 307.629C254.648 307.706 254.708 307.773 254.78 307.827C254.873 307.893 254.98 307.937 255.092 307.955C255.205 307.973 255.32 307.964 255.429 307.93V307.93Z" fill="#EBEBEB"/>
<path d="M251.407 305.222C251.527 305.183 251.633 305.108 251.71 305.008C254.699 301.207 257.178 299.347 262.595 297.864C262.763 297.816 262.905 297.704 262.99 297.552C263.076 297.4 263.098 297.221 263.053 297.052C263.001 296.882 262.885 296.738 262.73 296.651C262.574 296.564 262.391 296.541 262.219 296.587C256.529 298.144 253.806 300.167 250.64 304.189C250.586 304.258 250.547 304.337 250.524 304.421C250.501 304.505 250.495 304.593 250.507 304.68C250.519 304.767 250.547 304.85 250.592 304.925C250.636 305.001 250.695 305.066 250.765 305.119C250.855 305.188 250.961 305.234 251.073 305.252C251.185 305.27 251.3 305.26 251.407 305.222Z" fill="#EBEBEB"/>
<path d="M247.887 301.731C248.005 301.685 248.109 301.608 248.189 301.51C251.186 297.716 253.651 295.857 259.075 294.373C259.244 294.325 259.387 294.212 259.473 294.058C259.559 293.905 259.58 293.723 259.532 293.554C259.48 293.385 259.363 293.243 259.208 293.157C259.052 293.072 258.87 293.05 258.699 293.097C253.001 294.654 250.285 296.676 247.112 300.698C247.005 300.838 246.959 301.015 246.982 301.189C247.006 301.363 247.098 301.521 247.237 301.628C247.329 301.697 247.436 301.743 247.549 301.761C247.662 301.779 247.778 301.769 247.887 301.731V301.731Z" fill="#EBEBEB"/>
<path d="M198.795 155.696C179.031 157.74 158.153 160.699 138.449 162.662C137.94 172.19 136.5 180.109 139.563 189.858C142.36 198.788 150.596 206.094 158.803 211.179C168.537 217.208 187.755 224.588 195.43 228.647C206.5 234.514 202.957 236.765 206.647 247.016C209.016 253.562 212.47 259.289 219.193 269.458C223.393 275.813 225.186 278.706 229.142 284.174C236.263 286.676 245.178 282.226 249.717 276.396C244.064 258.839 238.145 240.625 232.861 223.26C229.909 213.577 227.429 210.197 218.839 203.201C212.123 197.71 204.286 191.932 195.437 185.452C204.765 171.762 199.031 163.083 198.795 155.696Z" fill="#D4A373"/>
<path opacity="0.4" d="M198.795 155.696C179.031 157.74 158.153 160.699 138.449 162.662C137.94 172.19 136.5 180.109 139.563 189.858C142.36 198.788 150.596 206.094 158.803 211.179C168.537 217.208 187.755 224.588 195.43 228.647C206.5 234.514 202.957 236.765 206.647 247.016C209.016 253.562 212.47 259.289 219.193 269.458C223.393 275.813 225.186 278.706 229.142 284.174C236.263 286.676 245.178 282.226 249.717 276.396C244.064 258.839 238.145 240.625 232.861 223.26C229.909 213.577 227.429 210.197 218.839 203.201C212.123 197.71 204.286 191.932 195.437 185.452C204.765 171.762 199.031 163.083 198.795 155.696Z" fill="white"/>
<path d="M248.167 270.809C243.828 277.931 233.821 280.551 226.027 280.071C227.289 282.285 228.846 284.255 230.101 286.455C238.359 287.99 245.134 284.514 250.182 278.034C249.547 275.613 248.868 273.207 248.167 270.809Z" fill="#D4A373"/>
<path d="M171.592 84.7813C183.622 83.8662 188.566 84.7149 199.504 102.124C207.179 114.368 223.858 136.427 223.858 136.427L206.965 151.127C199.312 139.843 191.002 132.028 178.729 115.578L171.592 84.7813Z" fill="#E9EDC9"/>
<path d="M191.356 108.663C188.028 90.2646 181.12 84.6042 171.592 84.7813C171.415 84.7813 158.545 86.9953 151.106 88.6484C147.585 89.4381 134.456 95.224 130.744 97.5044C125.999 100.39 123.822 109.261 124.907 122.405C126.04 135.064 127.992 147.636 130.751 160.043C133.01 170.64 133.408 175.467 137.925 188.994C151.379 192.19 203.954 174.839 202.079 158.293C200.397 154.603 197.651 150.441 195.924 142.847C193.356 129.46 192.397 114.442 191.356 108.663Z" fill="#CCD5AE"/>
<path d="M144.766 81.4677C144.072 76.2279 139.083 70.6043 136.914 65.9697C134.818 61.5417 133.962 58.0804 134.006 53.955C134.131 38.9884 147.718 30.7302 160.663 32.1988C184.146 34.863 181.924 52.0731 181.327 55.2096C181.031 56.7742 179.113 59.3203 178.168 60.6265C177.223 61.9328 175.755 61.9328 174.198 61.7704C172.64 61.6081 171.12 62.1985 169.548 62.5084C167.733 62.8405 165.858 63.0915 164.072 63.4014L159.12 64.2427C158.832 64.2944 157.349 64.3313 157.164 64.5748L144.766 81.4677Z" fill="#1E1E1E"/>
<path d="M138.205 72.0803C141.792 74.3976 144.353 72.1246 144.353 72.1246L143.962 91.748C146.552 99.2018 157.607 99.5856 162.249 97.652C166.891 95.7184 166.449 92.7443 165.061 90.0949L165.482 87.2979C167.55 87.4071 169.622 87.3898 171.688 87.2462C175.792 86.8329 178.98 83.6374 180.308 79.2537C181.696 74.6781 182.249 67.3202 181.445 61.7409C181.229 60.2738 181.214 58.7841 181.4 57.3129C182.293 50.3536 177.659 43.2909 171.519 40.3389C169.607 40.243 171.519 41.8887 171.659 43.6156C171.77 44.8629 170.294 45.7337 169.054 45.9256C167.445 46.0541 165.829 45.7801 164.353 45.1285C160.847 43.8739 157.26 42.3684 153.548 42.6562C152.766 42.7153 151.792 43.0843 151.799 43.8666C151.828 44.1301 151.919 44.3829 152.065 44.6046C152.707 45.7854 153.497 46.9293 154.072 48.1322C154.98 50.0067 155.873 53.0473 155.209 55.1358C154.778 56.35 154.088 57.4556 153.187 58.3756C152.921 58.6708 150.05 60.6708 150.05 60.6634C150.19 62.228 150.242 66.1763 147.681 66.0066C145.844 65.8885 145.312 61.1431 143.489 59.0398C141.666 56.9365 137.275 56.2281 135.453 59.1653C132.906 63.2907 134.316 69.5416 138.205 72.0803Z" fill="#C8856A"/>
<path d="M165.482 87.32C159.032 86.3163 154.131 85.4381 150.928 80.619C149.443 78.1491 148.228 75.5264 147.305 72.7962C147.305 72.7962 147.755 78.5599 149.733 82.523C151.253 85.5783 155.01 88.368 165.135 89.6078L165.482 87.32Z" fill="#AF6152"/>
<path d="M170.183 70.7593C164.279 70.5453 163.29 72.0803 157.829 72.8183C150.508 73.8072 149.578 66.2796 150.05 62.9291L144.84 61.1136C146.316 64.6191 145.201 70.8774 146.663 76.929C148.124 82.9806 151.829 85.047 156.855 86.6337C161.88 88.2204 171.43 88.9805 176.611 86.0802C182.677 82.6928 181.651 71.4825 181.651 71.4825C177.777 73.0618 176.102 70.9807 170.183 70.7593Z" fill="#1E1E1E"/>
<path d="M169.002 74.036C165.688 73.8146 163.474 74.774 162.685 77.0618C161.895 79.3496 162.19 80.9511 163.297 81.1429C164.404 81.3348 167.039 81.1429 167.231 80.0138C167.423 78.8847 165.755 77.6448 168.33 77.8884C170.906 78.1319 169.12 79.4234 169.068 80.3533C169.017 81.2832 170.286 81.9695 173.238 81.5562C174.854 81.3274 174.515 79.0544 174.286 77.6005C174.057 76.1467 172.367 74.2205 169.002 74.036Z" fill="#C8856A"/>
<path d="M168.958 76.25C168.762 76.2278 168.563 76.2278 168.367 76.25H167.843C167.559 76.2291 167.278 76.1822 167.002 76.1098C166.701 76.0271 166.411 75.9081 166.139 75.7555C165.848 75.5312 165.537 75.3359 165.209 75.1725C165.068 75.1356 164.825 75.2242 164.832 75.3939C164.861 75.5474 164.923 75.6928 165.014 75.8202C165.104 75.9475 165.221 76.0539 165.356 76.1319C165.597 76.3166 165.86 76.4704 166.139 76.5895C166.681 76.8126 167.258 76.9424 167.843 76.9732C168.158 76.9954 168.473 76.9954 168.788 76.9732C168.965 76.9732 169.187 76.9732 169.26 76.7518C169.334 76.5304 169.164 76.25 168.958 76.25Z" fill="#AF6152"/>
<path d="M155.821 56.0288L142.722 58.3388C143.464 58.8535 144.054 59.56 144.427 60.383L155.925 58.907L155.821 56.0288Z" fill="#37474F"/>
<path d="M184.426 54.7299L183.622 54.6635C181.024 54.4938 177.607 54.5676 175.504 55.3056C172.832 56.2428 171.814 57.1948 170.382 57.2686C168.95 57.3424 167.969 56.4642 165.29 55.7926C163.157 55.2465 159.482 55.4974 156.633 55.9255L155.748 56.0657C155.424 56.1805 155.141 56.3866 154.933 56.6591C154.725 56.9316 154.6 57.2587 154.574 57.6007C154.586 58.2241 154.798 58.827 155.179 59.3203C155.291 59.5357 155.356 59.772 155.371 60.014C155.511 61.2243 155.371 63.5859 155.807 64.8774C155.989 65.5118 156.295 66.1038 156.707 66.6191C156.864 66.801 157.037 66.969 157.224 67.1209C157.319 67.2012 157.421 67.2752 157.526 67.3423C157.817 67.5356 158.132 67.6894 158.463 67.7999L158.626 67.8516L158.877 67.9254L159.15 67.9844C159.435 68.0396 159.723 68.0742 160.013 68.0877H160.39H160.884C162.229 68.0899 163.549 67.7176 164.694 67.0124C165.84 66.3073 166.767 65.2972 167.371 64.0951C168.471 62.1911 168.515 59.5786 170.175 59.5122H170.33H170.471C171.666 59.7557 171.282 62.1616 171.888 63.8664C172.105 64.5437 172.442 65.1762 172.884 65.7335C172.965 65.8294 173.054 65.9254 173.142 66.0139L173.282 66.1542L173.423 66.2796C173.466 66.3182 173.513 66.3527 173.563 66.3829L173.703 66.4936L173.821 66.5674L173.902 66.6265C174.337 66.8837 174.81 67.0682 175.305 67.1726H175.43C176.011 67.2814 176.604 67.3161 177.194 67.2759C178.358 67.2562 179.491 66.8964 180.454 66.2407C181.416 65.5851 182.166 64.6623 182.611 63.5859C183.26 62.2354 183.644 59.8959 184.006 58.6413C184.076 58.4021 184.197 58.1806 184.36 57.9919C184.812 57.4771 185.118 56.85 185.245 56.1764C185.304 55.4458 184.869 54.7742 184.426 54.7299ZM166.589 62.3682C166.283 63.3634 165.753 64.2749 165.039 65.0324V65.0324C164.494 65.572 163.847 65.9985 163.137 66.2873C162.426 66.5761 161.666 66.7215 160.899 66.715C158.921 66.7741 157.873 65.977 157.312 64.9734C157.312 64.9069 157.246 64.8479 157.216 64.7889L157.128 64.6044L157.061 64.4346C157.037 64.3848 157.017 64.3329 157.002 64.2796L156.958 64.1616C156.958 64.1616 156.958 64.0878 156.921 64.0509L156.869 63.8664C156.821 63.6889 156.782 63.5091 156.751 63.3276V63.3276C156.751 63.2169 156.714 63.1062 156.7 63.0029C156.685 62.8996 156.655 62.6413 156.64 62.4789C156.64 62.4789 156.64 62.4125 156.64 62.383C156.64 62.3535 156.64 62.3166 156.64 62.287C156.53 61.0029 156.53 58.4863 157.216 57.859C157.902 57.2317 159.607 56.6044 162.235 56.752H162.515C162.916 56.7809 163.315 56.8327 163.711 56.907L164.168 57.0103C164.554 57.1018 164.934 57.2176 165.305 57.3572L165.651 57.4974C165.779 57.5475 165.902 57.6067 166.02 57.6745H166.094L166.234 57.7483C166.528 57.8969 166.782 58.1147 166.972 58.383C167.393 59.2317 167.046 60.907 166.589 62.3682V62.3682ZM182.286 61.0989C181.998 62.1173 181.378 64.3387 179.408 65.4014C178.773 65.7342 178.072 65.9232 177.356 65.9549C175.201 66.0951 174.072 65.2169 173.489 64.1689C173.489 64.1689 173.445 64.0878 173.43 64.0509C173.402 64.0072 173.38 63.96 173.364 63.9106C173.349 63.8901 173.336 63.8678 173.327 63.8442C173.327 63.7778 173.268 63.704 173.245 63.6376C173.212 63.5606 173.182 63.4818 173.157 63.4014C173.157 63.4014 173.157 63.3276 173.12 63.2907V63.2243V63.1284V63.0472C173.042 62.7319 172.988 62.4112 172.958 62.0878C172.817 60.6634 172.832 58.9956 173.415 58.1911C173.998 57.3867 176.035 56.4347 177.947 56.1026C178.352 56.0315 178.761 55.9822 179.172 55.955H180.249H180.574C180.777 55.9692 180.979 55.9963 181.179 56.0362H181.319H181.415H181.555L181.725 56.0878C181.821 56.1154 181.915 56.1499 182.006 56.1912H182.057C182.286 56.2862 182.496 56.4212 182.677 56.5897C183.194 57.2539 182.677 59.7926 182.286 61.0989Z" fill="#455A64"/>
<path d="M176.596 68.4862L170.094 70.346L168.685 60.752C169.009 60.014 169.423 59.5491 170.161 59.5122C170.211 59.4972 170.265 59.4972 170.316 59.5122C170.365 59.5049 170.414 59.5049 170.463 59.5122C170.535 59.524 170.605 59.5464 170.67 59.5786C170.67 59.5786 170.67 59.5786 170.707 59.5786C170.744 59.5786 170.913 59.7631 171.009 59.8738C171.743 60.6652 172.403 61.5224 172.98 62.4346C173.592 63.3571 174.234 64.3903 174.862 65.4531C175.216 66.0508 175.555 66.6486 175.91 67.2464C176.116 67.6966 176.382 68.0877 176.596 68.4862Z" fill="#AF6152"/>
<path d="M164.057 61.6302C164.033 61.9862 163.904 62.3272 163.688 62.6108C163.471 62.8944 163.176 63.1082 162.839 63.2256C162.502 63.3431 162.138 63.359 161.792 63.2715C161.446 63.184 161.133 62.9969 160.893 62.7333C160.652 62.4698 160.494 62.1414 160.438 61.7889C160.383 61.4364 160.432 61.0753 160.579 60.7504C160.727 60.4255 160.967 60.151 161.269 59.9611C161.571 59.7712 161.922 59.6741 162.279 59.6819C162.524 59.6914 162.765 59.7494 162.988 59.8528C163.21 59.9562 163.41 60.1028 163.576 60.284C163.741 60.4653 163.869 60.6777 163.952 60.9088C164.034 61.1399 164.07 61.3851 164.057 61.6302V61.6302Z" fill="#2E2E2E"/>
<path d="M163.607 54.11L159.305 55.2834C159.161 54.6978 159.248 54.0791 159.55 53.5566C159.851 53.0341 160.342 52.648 160.921 52.479C161.204 52.4086 161.499 52.395 161.788 52.439C162.077 52.4829 162.354 52.5836 162.604 52.7352C162.853 52.8868 163.071 53.0864 163.243 53.3223C163.415 53.5583 163.539 53.826 163.607 54.11V54.11Z" fill="#2E2E2E"/>
<path d="M180.072 54.2724L175.644 53.4384C175.684 53.1488 175.782 52.8703 175.933 52.6199C176.084 52.3695 176.284 52.1524 176.522 51.9819C176.759 51.8113 177.029 51.6909 177.315 51.628C177.6 51.565 177.896 51.5608 178.183 51.6156C178.779 51.7307 179.308 52.071 179.659 52.5657C180.011 53.0604 180.159 53.6716 180.072 54.2724Z" fill="#2E2E2E"/>
<path d="M178.242 61.276C178.186 61.6285 178.028 61.957 177.788 62.2206C177.547 62.4843 177.235 62.6715 176.889 62.7591C176.543 62.8467 176.179 62.8308 175.842 62.7134C175.505 62.5961 175.209 62.3823 174.993 62.0987C174.776 61.8152 174.647 61.4742 174.623 61.1182C174.598 60.7622 174.678 60.4067 174.854 60.0959C175.029 59.7851 175.292 59.5327 175.61 59.3699C175.927 59.2071 176.286 59.1411 176.64 59.1801C176.883 59.2119 177.118 59.2914 177.33 59.4141C177.542 59.5368 177.728 59.7002 177.877 59.895C178.026 60.0898 178.135 60.3121 178.197 60.5491C178.26 60.7861 178.275 61.0331 178.242 61.276V61.276Z" fill="#2E2E2E"/>
<path d="M159.408 99.9324C150.323 100.943 142.471 95.8513 141.519 93.8956C140.567 91.9399 142.663 88.2794 142.633 86.641C142.604 85.0027 143.017 83.6448 144.345 84.1023L144.242 86.2499C144.242 86.2499 145.718 89.3495 154.117 90.5303C162.515 91.7111 165.187 89.2019 165.187 89.2019L165.371 87.9842C166.057 87.9842 166.781 87.9842 167.474 87.9842C167.316 89.1641 167.381 90.3634 167.666 91.5192C168.205 93.3495 168.508 98.9214 159.408 99.9324Z" fill="#E9EDC9"/>
<path d="M226.116 121.954C226.116 121.954 225.732 120.021 228.057 117.799C230.381 115.578 233.54 113.622 234.02 108.766L237.821 110.353L233.156 121.128L226.116 121.954Z" fill="#D4A373"/>
<path opacity="0.75" d="M226.116 121.954C226.116 121.954 225.732 120.021 228.057 117.799C230.381 115.578 233.54 113.622 234.02 108.766L237.821 110.353L233.156 121.128L226.116 121.954Z" fill="white"/>
<path d="M226.116 121.954C226.116 121.954 222.005 120.478 213.769 123.349C205.533 126.22 198.898 129.342 182.603 131.076L187.135 132.965L229.031 125.083L226.116 121.954Z" fill="#D4A373"/>
<path opacity="0.75" d="M226.116 121.954C226.116 121.954 222.005 120.478 213.769 123.349C205.533 126.22 198.898 129.342 182.603 131.076L187.135 132.965L229.031 125.083L226.116 121.954Z" fill="white"/>
<path d="M182.603 131.076L173.762 181.592L178.293 183.481L187.127 132.965L182.603 131.076Z" fill="#D4A373"/>
<path opacity="0.8" d="M182.603 131.076L173.762 181.592L178.293 183.481L187.127 132.965L182.603 131.076Z" fill="white"/>
<path opacity="0.1" d="M182.603 131.076L173.762 181.592L178.293 183.481L187.127 132.965L182.603 131.076Z" fill="black"/>
<g opacity="0.1">
<path d="M234.352 111.371C234.087 112.437 233.616 113.44 232.964 114.323C232.308 115.204 231.592 116.04 230.824 116.825C230.046 117.576 229.344 118.402 228.728 119.29C228.448 119.735 228.225 120.214 228.064 120.715C227.906 121.19 227.866 121.696 227.946 122.191L227.437 122.331C227.352 121.738 227.418 121.134 227.629 120.574C227.818 120.049 228.079 119.552 228.404 119.098C229.062 118.22 229.803 117.407 230.618 116.67C231.407 115.922 232.146 115.123 232.832 114.279C233.523 113.418 234.04 112.431 234.352 111.371V111.371Z" fill="black"/>
<path d="M234.027 114.198C233.751 114.855 233.389 115.473 232.95 116.036C232.529 116.604 232.094 117.165 231.688 117.74C231.276 118.308 230.921 118.913 230.625 119.548C230.333 120.159 230.187 120.828 230.197 121.504H229.673C229.703 120.756 229.907 120.026 230.271 119.371C230.615 118.737 231.017 118.137 231.474 117.578C231.924 117.025 232.389 116.493 232.839 115.947C233.312 115.42 233.712 114.832 234.027 114.198V114.198Z" fill="black"/>
<path d="M198.898 129.342C201.185 128.833 203.442 128.198 205.658 127.438C207.872 126.7 210.05 125.836 212.249 125.017C214.445 124.173 216.727 123.572 219.053 123.224C220.22 123.039 221.399 122.935 222.581 122.914C223.178 122.908 223.774 122.943 224.367 123.017C224.992 123.09 225.594 123.299 226.131 123.63L225.821 124.05C225.354 123.765 224.834 123.579 224.293 123.504C223.726 123.419 223.154 123.375 222.581 123.371C221.42 123.371 220.261 123.453 219.112 123.615C216.8 123.916 214.528 124.471 212.337 125.268C210.123 126.043 207.909 126.855 205.695 127.563C203.465 128.282 201.195 128.876 198.898 129.342V129.342Z" fill="black"/>
<path d="M210.035 127.696C211.326 127.349 212.581 126.914 213.85 126.5C215.12 126.087 216.382 125.674 217.673 125.334C218.965 124.985 220.283 124.738 221.614 124.596C222.966 124.416 224.341 124.491 225.666 124.818L225.518 125.32C224.261 124.968 222.949 124.856 221.651 124.988C220.332 125.093 219.024 125.305 217.74 125.622C216.441 125.925 215.164 126.286 213.887 126.655C212.61 127.024 211.334 127.393 210.035 127.696Z" fill="black"/>
</g>
<path d="M237.518 107.918L232.086 120.685L222.603 174.847L224.869 175.791L229.946 160.352L239.776 108.862L237.518 107.918Z" fill="#D4A373"/>
<path opacity="0.2" d="M234.352 121.63L239.776 108.862L229.946 160.352L224.869 175.791L234.352 121.63Z" fill="black"/>
<path d="M225.666 125.578L184.375 133.607L174.891 187.769L177.157 188.721L218.441 180.692L227.931 126.53L225.666 125.578Z" fill="#D4A373"/>
<path opacity="0.2" d="M186.64 134.552L177.157 188.721L218.441 180.692L227.931 126.53L186.64 134.552Z" fill="black"/>
<path opacity="0.35" d="M184.375 133.607L186.64 134.552L177.157 188.721L174.891 187.769L184.375 133.607Z" fill="black"/>
<path d="M227.931 126.53L234.352 121.63L224.869 175.791C224.131 178.743 221.917 180.301 218.441 180.692L227.931 126.53Z" fill="#D4A373"/>
<path opacity="0.35" d="M227.931 126.53L234.352 121.63L224.869 175.791C224.035 178.921 221.732 180.367 218.441 180.692L227.931 126.53Z" fill="black"/>
<path d="M231.835 120.574C230.448 119.991 227.894 120.574 226.116 121.954C224.337 123.334 224.035 124.906 225.422 125.467L227.931 126.53L234.352 121.63L232.086 120.685L231.835 120.574Z" fill="#455A64"/>
<path d="M232.086 120.685C231.931 122.729 229.54 124.309 225.666 125.578L227.931 126.53C231.289 125.696 233.378 124.021 234.352 121.63L232.086 120.685Z" fill="#D4A373"/>
<path d="M130.626 99.0025C122.102 104.006 117.608 107.084 116.966 118.833C116.228 132.05 116.014 142.367 117.408 164.057C117.733 169.223 116.759 175.6 128.478 177.282C143.46 179.437 165.076 179.422 170.478 179.386C173.932 179.386 181.548 179.385 184.183 178.802C192.441 177.053 196.441 171.681 198.825 168.854C200.146 167.29 201.4 165.408 201.186 163.371C201.042 162.73 200.985 162.072 201.016 161.415C201.214 160.794 201.476 160.196 201.799 159.629C202.078 158.953 202.132 158.206 201.954 157.496C201.715 156.887 201.532 156.257 201.408 155.615C201.319 154.301 202.433 153.246 202.884 151.998C202.963 151.815 202.988 151.613 202.957 151.415C202.869 150.995 202.382 150.773 201.954 150.714C200.197 150.471 197.836 151.452 196.419 152.493C191.43 156.183 188.773 160.456 181.386 161.349C179.622 161.555 177.423 161.031 177.696 159.282L178.301 155.821C174.146 157.061 172.242 161.437 168.818 162.463C165.784 163.378 139.962 157.253 139.962 157.253L139.799 131.32C139.799 131.32 141.512 106.235 130.626 99.0025Z" fill="#C8856A"/>
<path d="M130.744 97.4749C123.969 101.113 117.534 104.722 116.656 115.401C115.777 126.08 115.748 143.364 116.397 157.961C117.047 172.559 117.372 173.821 121.807 176.065C129.748 180.079 153.821 179.179 153.821 179.179C153.821 179.179 151.423 176.662 152.109 169.924C152.796 163.186 155.209 160.596 155.209 160.596L140.788 156.965C140.788 156.965 141.12 132.855 140.862 125.548C140.604 118.242 138.434 103.394 130.744 97.4749Z" fill="#E9EDC9"/>
<path d="M234.057 138.81C233.717 140.581 232.477 142.928 231.784 144.441C231.09 145.954 231.385 147.482 232.345 147.799L230.632 156.773C230.632 156.773 231.872 156.773 234.153 153.6C236.433 150.426 237.68 144.7 237.894 141.659C238.108 138.618 237.983 133.216 235.326 132.168L234.057 138.81Z" fill="#C8856A"/>
<path d="M230.411 54.6561C225.787 57.4584 220.267 58.3902 214.979 57.2613L212.625 56.6192C207.546 54.9286 203.289 51.387 200.703 46.6996C198.116 42.0122 197.39 36.5227 198.669 31.324C199.947 26.1253 203.137 21.5988 207.602 18.6455C212.067 15.6923 217.481 14.5289 222.765 15.3871L225.149 15.9111C229.152 17.032 232.74 19.2998 235.469 22.435C238.199 25.5701 239.951 29.4355 240.511 33.5546C241.07 37.6738 240.412 41.8666 238.617 45.6162C236.823 49.3658 233.97 52.5082 230.411 54.6561V54.6561Z" fill="white"/>
<path d="M239.164 24.4424C236.166 19.4722 231.409 15.8111 225.837 14.1863C220.265 12.5615 214.285 13.0917 209.086 15.6718C203.887 18.2519 199.848 22.693 197.772 28.1132C195.696 33.5334 195.735 39.5361 197.88 44.9293L193.489 50.6119C193.322 50.8265 193.223 51.0868 193.207 51.3584C193.191 51.63 193.258 51.9002 193.399 52.133C193.54 52.3658 193.748 52.5504 193.996 52.6623C194.244 52.7741 194.52 52.808 194.788 52.7595L201.865 51.5122C205.648 55.9125 210.948 58.7292 216.712 59.4032C222.475 60.0773 228.282 58.5594 232.978 55.1509C237.675 51.7423 240.918 46.6925 242.064 41.0037C243.21 35.3149 242.174 29.4033 239.164 24.4424V24.4424ZM230.411 54.6561C225.787 57.4584 220.267 58.3902 214.979 57.2613L212.625 56.6192C207.546 54.9286 203.289 51.3871 200.703 46.6996C198.116 42.0122 197.39 36.5227 198.669 31.324C199.947 26.1253 203.137 21.5988 207.602 18.6455C212.067 15.6923 217.481 14.5289 222.765 15.3871L225.149 15.9111C229.152 17.032 232.74 19.2998 235.469 22.435C238.199 25.5701 239.951 29.4355 240.511 33.5547C241.07 37.6738 240.412 41.8666 238.617 45.6162C236.823 49.3658 233.97 52.5082 230.411 54.6561V54.6561Z" fill="#E0E0E0"/>
<path d="M219.363 48.8038C204.323 40.7743 203.127 32.1693 207.503 27.97C211.422 24.2136 218.573 26.7007 219.378 32.0881C220.182 26.7081 227.356 24.2284 231.267 27.9996C235.636 32.2062 234.411 40.826 219.363 48.8038Z" fill="#E86262"/>
<path d="M108.626 304.262L76.2133 322.565L26.4425 294.004L58.8481 275.702L108.626 304.262Z" fill="#D4A373"/>
<path opacity="0.6" d="M108.626 304.262L76.2133 322.565L26.4425 294.004L58.8481 275.702L108.626 304.262Z" fill="black"/>
<path d="M75.859 321.266L107.18 303.473C106.442 301.259 106.442 300.595 107.342 297.657L76.2133 315.266C76.2133 315.266 75.645 315.192 75.859 321.266Z" fill="#F5F5F5"/>
<path d="M77.7335 312.816C76.9016 313.354 76.2086 314.081 75.711 314.938C75.2134 315.794 74.9252 316.757 74.8701 317.746V321.591C74.8701 323.406 76.1542 324.144 77.7335 323.236L108.619 305.694V304.292L78.1173 321.51C77.1727 322.056 76.4051 321.613 76.4051 320.528V317.096C76.4378 316.504 76.6099 315.928 76.9074 315.415C77.205 314.902 77.6195 314.467 78.1173 314.144L108.619 296.912V295.296L77.7335 312.816Z" fill="#D4A373"/>
<path opacity="0.5" d="M77.7335 312.816C76.9016 313.354 76.2086 314.081 75.711 314.938C75.2134 315.794 74.9252 316.757 74.8701 317.746V321.591C74.8701 323.406 76.1542 324.144 77.7335 323.236L108.619 305.694V304.292L78.1173 321.51C77.1727 322.056 76.4051 321.613 76.4051 320.528V317.096C76.4378 316.504 76.6099 315.928 76.9074 315.415C77.205 314.902 77.6195 314.467 78.1173 314.144L108.619 296.912V295.296L77.7335 312.816Z" fill="black"/>
<path d="M108.619 295.274L58.8481 266.713L27.9628 284.255C27.1295 284.793 26.4351 285.519 25.9361 286.376C25.4372 287.233 25.148 288.195 25.092 289.185V293.037C25.0556 293.391 25.1145 293.748 25.2624 294.071C25.4103 294.394 25.642 294.672 25.9333 294.875L75.704 323.436C75.4115 323.233 75.179 322.956 75.0309 322.632C74.8829 322.309 74.8248 321.952 74.8627 321.598V317.746C74.9165 316.757 75.2032 315.795 75.6996 314.938C76.1959 314.082 76.8878 313.354 77.7188 312.816L108.619 295.274Z" fill="#D4A373"/>
<path opacity="0.35" d="M108.619 295.274L58.8481 266.713L27.9628 284.255C27.1295 284.793 26.4351 285.519 25.9361 286.376C25.4372 287.233 25.148 288.195 25.092 289.185V293.037C25.0556 293.391 25.1145 293.748 25.2624 294.071C25.4103 294.394 25.642 294.672 25.9333 294.875L75.704 323.436C75.4115 323.233 75.179 322.956 75.0309 322.632C74.8829 322.309 74.8248 321.952 74.8627 321.598V317.746C74.9165 316.757 75.2032 315.795 75.6996 314.938C76.1959 314.082 76.8878 313.354 77.7188 312.816L108.619 295.274Z" fill="black"/>
<path d="M75.704 314.941C75.191 315.79 74.9039 316.755 74.8701 317.746V321.598C74.8322 321.952 74.8903 322.309 75.0383 322.632C75.1864 322.956 75.4189 323.233 75.7114 323.436L25.9407 294.875C25.648 294.673 25.4149 294.395 25.2656 294.072C25.1164 293.749 25.0564 293.392 25.092 293.037V289.185C25.125 288.193 25.4149 287.227 25.9333 286.381L75.704 314.941Z" fill="#D4A373"/>
<path opacity="0.25" d="M75.704 314.941C75.191 315.79 74.9039 316.755 74.8701 317.746V321.598C74.8322 321.952 74.8903 322.309 75.0383 322.632C75.1864 322.956 75.4189 323.233 75.7114 323.436L25.9407 294.875C25.648 294.673 25.4149 294.395 25.2656 294.072C25.1164 293.749 25.0564 293.392 25.092 293.037V289.185C25.125 288.193 25.4149 287.227 25.9333 286.381L75.704 314.941Z" fill="black"/>
<path d="M32.6639 290.196C31.734 294.226 31.7488 295.798 32.6639 298.757L35.0402 300.122C34.1251 297.17 34.1104 295.598 35.0402 291.569L32.6639 290.196Z" fill="#D4A373"/>
<path d="M65.3056 308.956C64.3757 312.986 64.3905 314.506 65.3056 317.465L67.6746 318.831C66.7595 315.879 66.7521 314.351 67.6746 310.329L65.3056 308.956Z" fill="#D4A373"/>
<path d="M115.165 294.794L82.7519 313.096L32.9738 284.536L65.3868 266.233L115.165 294.794Z" fill="#D4A373"/>
<path opacity="0.4" d="M115.165 294.794L82.7519 313.096L32.9738 284.536L65.3868 266.233L115.165 294.794Z" fill="black"/>
<path d="M82.3977 311.761L113.718 293.96C112.936 291.746 112.98 290.764 113.881 287.827L82.7519 305.436C82.7519 305.436 82.1837 305.716 82.3977 311.761Z" fill="#F5F5F5"/>
<path d="M84.2722 303.03C83.4395 303.567 82.7458 304.294 82.2481 305.151C81.7504 306.008 81.4628 306.97 81.4088 307.96V312.122C81.4088 313.938 82.6855 314.676 84.2722 313.768L115.128 296.218V294.794L84.6265 312.011C83.6818 312.558 82.9143 312.115 82.9143 311.023V307.281C82.9507 306.689 83.1251 306.113 83.4237 305.601C83.7223 305.088 84.1367 304.653 84.6338 304.329L115.128 287.104V285.488L84.2722 303.03Z" fill="#D4A373"/>
<path opacity="0.25" d="M84.2722 303.03C83.4395 303.567 82.7458 304.294 82.2481 305.151C81.7504 306.008 81.4628 306.97 81.4088 307.96V312.122C81.4088 313.938 82.6855 314.676 84.2722 313.768L115.128 296.218V294.794L84.6265 312.011C83.6818 312.558 82.9143 312.115 82.9143 311.023V307.281C82.9507 306.689 83.1251 306.113 83.4237 305.601C83.7223 305.088 84.1367 304.653 84.6338 304.329L115.128 287.104V285.488L84.2722 303.03Z" fill="black"/>
<path d="M115.128 285.488L65.3868 256.927L34.5015 274.469C33.6696 275.007 32.9766 275.734 32.4789 276.591C31.9813 277.448 31.6932 278.41 31.6381 279.399V283.562C31.6011 283.915 31.6588 284.273 31.8054 284.597C31.9519 284.921 32.182 285.201 32.472 285.407L82.2501 313.967C81.9587 313.764 81.7271 313.486 81.5792 313.163C81.4312 312.84 81.3724 312.483 81.4088 312.13V307.982C81.4637 306.995 81.751 306.034 82.2473 305.179C82.7436 304.323 83.4348 303.597 84.2648 303.06L115.128 285.488Z" fill="#D4A373"/>
<path d="M82.2427 305.155C81.7297 306.001 81.4425 306.964 81.4088 307.952V312.13C81.3724 312.483 81.4312 312.84 81.5792 313.163C81.7271 313.486 81.9587 313.764 82.2501 313.967L32.472 285.407C32.182 285.201 31.9519 284.921 31.8054 284.597C31.6588 284.273 31.6011 283.915 31.6381 283.562V279.399C31.6719 278.409 31.959 277.443 32.472 276.595L82.2427 305.155Z" fill="#D4A373"/>
<path opacity="0.15" d="M82.2427 305.155C81.7297 306.001 81.4425 306.964 81.4088 307.952V312.13C81.3724 312.483 81.4312 312.84 81.5792 313.163C81.7271 313.486 81.9587 313.764 82.2501 313.967L32.472 285.407C32.182 285.201 31.9519 284.921 31.8054 284.597C31.6588 284.273 31.6011 283.915 31.6381 283.562V279.399C31.6719 278.409 31.959 277.443 32.472 276.595L82.2427 305.155Z" fill="black"/>
<path d="M39.1952 280.41C38.2727 284.44 38.2874 286.314 39.1952 289.266L41.5642 290.632C40.6564 287.68 40.6417 285.783 41.5642 281.776L39.1952 280.41Z" fill="#D4A373"/>
<path d="M71.8443 299.192C70.9144 303.222 70.9292 305.045 71.8443 308.004L74.2133 309.369C73.2982 306.417 73.2834 304.58 74.2133 300.55L71.8443 299.192Z" fill="#D4A373"/>
<g opacity="0.4">
<path d="M39.1952 280.41C38.2727 284.44 38.2874 286.314 39.1952 289.266L41.5642 290.632C40.6564 287.68 40.6417 285.783 41.5642 281.776L39.1952 280.41Z" fill="white"/>
<path d="M71.8443 299.192C70.9144 303.222 70.9292 305.045 71.8443 308.004L74.2133 309.369C73.2982 306.417 73.2834 304.58 74.2133 300.55L71.8443 299.192Z" fill="white"/>
</g>
<path d="M111.113 284.277L109.755 283.539L110.995 283.244C111.114 283.386 111.188 283.559 111.209 283.743C111.23 283.927 111.197 284.113 111.113 284.277V284.277Z" fill="#D4A373"/>
<path opacity="0.5" d="M111.113 284.277L109.755 283.539L110.995 283.244C111.114 283.386 111.188 283.559 111.209 283.743C111.23 283.927 111.197 284.113 111.113 284.277V284.277Z" fill="black"/>
<path d="M75.0841 302.425C75.5137 302.64 75.9875 302.752 76.4679 302.752C76.9482 302.752 77.422 302.64 77.8516 302.425L108.899 284.491L62.4053 258.086L61.313 257.459L30.258 274.949C30.0886 275.004 29.9409 275.111 29.8361 275.255C29.7313 275.398 29.6749 275.572 29.6749 275.75C29.6749 275.928 29.7313 276.101 29.8361 276.245C29.9409 276.389 30.0886 276.496 30.258 276.551L75.0841 302.425Z" fill="#D4A373"/>
<path d="M86.7445 268.986L97.571 275.222L104.582 271.171L112.7 275.886V281.325C112.7 282.063 111.903 283.052 111.608 282.883C111.071 283.015 110.55 283.2 110.051 283.436C109.25 283.904 108.507 284.464 107.837 285.104L82.9512 271.171L86.7445 268.986Z" fill="#D4A373"/>
<path opacity="0.15" d="M86.7445 268.986L97.571 275.222L104.582 271.171L112.7 275.886V281.325C112.7 282.063 111.903 283.052 111.608 282.883C111.071 283.015 110.55 283.2 110.051 283.436C109.25 283.904 108.507 284.464 107.837 285.104L82.9512 271.171L86.7445 268.986Z" fill="black"/>
<path d="M108.265 276.536V282.44L108.361 282.381C108.759 282.135 109.214 281.992 109.682 281.968C109.988 281.936 110.297 282.006 110.56 282.167V275.215L108.265 276.536Z" fill="#37474F"/>
<path d="M106.737 284.477C106.764 284.108 106.9 283.756 107.128 283.466C107.244 283.31 107.372 283.165 107.512 283.03L107.645 282.905C107.698 282.854 107.755 282.807 107.814 282.765L107.955 282.654L108.265 282.447V276.543L106.744 277.421V284.455L106.737 284.477Z" fill="#E0E0E0"/>
<path opacity="0.4" d="M112.737 281.325C112.737 282.063 111.94 283.052 111.645 282.883L110.56 282.182V277.724L111.652 275.849L112.242 275.635L112.737 275.923V281.325Z" fill="black"/>
<path d="M76.4642 294.897V301.635C76.785 301.645 77.1029 301.571 77.3867 301.421L80.7962 299.458L106.744 284.477V277.414L76.4642 294.897Z" fill="#EBEBEB"/>
<path d="M31.055 269.606V274.698C31.0789 275.01 31.1747 275.312 31.3347 275.581C31.4947 275.85 31.7147 276.078 31.9775 276.248L72.1395 299.443L75.5417 301.406C75.8258 301.556 76.1434 301.629 76.4642 301.62V295.643L31.055 269.606Z" fill="#F5F5F5"/>
<path d="M62.42 249.326L108.914 276.167V276.794C108.914 277.141 109.401 277.266 109.999 276.92C110.597 276.573 111.084 276.145 111.084 275.547L111.143 274.956L63.7632 247.614L63.5713 247.503C63.5232 247.592 63.4955 247.69 63.4901 247.791V248.079C63.468 248.418 63.0104 248.942 62.42 249.326Z" fill="#D4A373"/>
<path opacity="0.1" d="M62.42 249.326L108.914 276.167V276.794C108.914 277.141 109.401 277.266 109.999 276.92C110.597 276.573 111.084 276.145 111.084 275.547L111.143 274.956L63.7632 247.614L63.5713 247.503C63.5232 247.592 63.4955 247.69 63.4901 247.791V248.079C63.468 248.418 63.0104 248.942 62.42 249.326Z" fill="black"/>
<path d="M77.8516 294.1L108.213 276.565C108.597 276.366 108.951 276.204 109.099 276.278L108.899 276.167L62.4053 249.326L61.8592 249.016C61.6127 248.939 61.3523 248.919 61.097 248.956C60.8416 248.993 60.5978 249.087 60.3832 249.23L30.258 266.654C30.0886 266.709 29.9409 266.816 29.8361 266.959C29.7313 267.103 29.6749 267.277 29.6749 267.455C29.6749 267.633 29.7313 267.806 29.8361 267.95C29.9409 268.094 30.0886 268.201 30.258 268.255L75.062 294.13C75.4968 294.344 75.9758 294.453 76.4603 294.447C76.9449 294.442 77.4215 294.323 77.8516 294.1V294.1Z" fill="#D4A373"/>
<path d="M63.5713 247.503L63.7632 247.614L111.128 274.956C111.152 274.905 111.187 274.859 111.231 274.824L111.386 274.735L111.733 274.536L112.154 274.292C112.235 274.238 112.332 274.214 112.429 274.223C112.526 274.232 112.616 274.275 112.685 274.344C112.708 274.354 112.728 274.369 112.744 274.388C112.799 274.449 112.846 274.516 112.884 274.587C112.935 274.672 112.977 274.761 113.01 274.853C113.047 274.955 113.079 275.058 113.106 275.163L113.172 275.525C113.176 275.596 113.176 275.667 113.172 275.739C113.169 275.798 113.169 275.857 113.172 275.916C113.172 276.049 113.172 276.189 113.172 276.337V275.001C113.123 274.563 112.971 274.143 112.731 273.774C112.49 273.405 112.166 273.097 111.785 272.875L67.0399 247.001C66.6705 246.784 66.2558 246.655 65.8282 246.624C65.4006 246.593 64.9717 246.662 64.575 246.824L64.0067 247.156C64.0067 247.156 63.8739 247.237 63.7706 247.296C63.6827 247.341 63.6125 247.413 63.5713 247.503V247.503Z" fill="#D4A373"/>
<path d="M77.8516 302.417L79.704 301.34L107.814 285.104C107.838 284.736 107.972 284.384 108.198 284.093C108.532 283.654 108.951 283.287 109.431 283.015C109.829 282.768 110.283 282.626 110.752 282.602C111.069 282.596 111.378 282.697 111.63 282.89C111.991 282.167 112.169 281.366 112.146 280.558H113.209C113.209 282.034 112.722 283.51 112.132 283.842L111.593 284.159C111.283 284.336 111.047 284.344 111.047 284.159V283.872C111.047 283.554 110.56 283.569 109.962 283.916C109.364 284.263 108.877 284.794 108.877 285.119V285.407C108.877 285.569 108.464 285.938 107.962 286.233L80.7741 301.93L77.8221 303.628C77.3962 303.849 76.9219 303.961 76.442 303.953V302.72C76.9304 302.746 77.4169 302.641 77.8516 302.417V302.417Z" fill="#D4A373"/>
<path opacity="0.3" d="M77.8516 302.417L79.704 301.34L107.814 285.104C107.838 284.736 107.972 284.384 108.198 284.093C108.532 283.654 108.951 283.287 109.431 283.015C109.829 282.768 110.283 282.626 110.752 282.602C111.069 282.596 111.378 282.697 111.63 282.89C111.991 282.167 112.169 281.366 112.146 280.558H113.209C113.209 282.034 112.722 283.51 112.132 283.842L111.593 284.159C111.283 284.336 111.047 284.344 111.047 284.159V283.872C111.047 283.554 110.56 283.569 109.962 283.916C109.364 284.263 108.877 284.794 108.877 285.119V285.407C108.877 285.569 108.464 285.938 107.962 286.233L80.7741 301.93L77.8221 303.628C77.3962 303.849 76.9219 303.961 76.442 303.953V302.72C76.9304 302.746 77.4169 302.641 77.8516 302.417V302.417Z" fill="black"/>
<path d="M29.7119 267.392V268.639C29.7248 268.807 29.7822 268.969 29.8781 269.108C29.9741 269.247 30.1052 269.357 30.258 269.429V269.429L72.1174 293.598L75.0694 295.303C75.4952 295.524 75.9696 295.636 76.4494 295.628V294.403C75.9685 294.412 75.4933 294.298 75.0694 294.071L73.1948 292.986L30.258 268.226C30.0977 268.152 29.9615 268.035 29.8649 267.888C29.7683 267.74 29.7152 267.568 29.7119 267.392V267.392Z" fill="#D4A373"/>
<path opacity="0.2" d="M29.7119 267.392V268.639C29.7248 268.807 29.7822 268.969 29.8781 269.108C29.9741 269.247 30.1052 269.357 30.258 269.429V269.429L72.1174 293.598L75.0694 295.303C75.4952 295.524 75.9696 295.636 76.4494 295.628V294.403C75.9685 294.412 75.4933 294.298 75.0694 294.071L73.1948 292.986L30.258 268.226C30.0977 268.152 29.9615 268.035 29.8649 267.888C29.7683 267.74 29.7152 267.568 29.7119 267.392V267.392Z" fill="black"/>
<path d="M29.7119 275.731V276.986C29.7245 277.153 29.7819 277.314 29.878 277.452C29.974 277.589 30.1053 277.699 30.258 277.768V277.768L72.1174 301.938L75.0694 303.635C75.4952 303.856 75.9696 303.968 76.4494 303.96V302.727C75.9682 302.74 75.4921 302.626 75.0694 302.395L73.2096 301.34L30.258 276.543C30.1005 276.472 29.966 276.358 29.8695 276.215C29.7731 276.072 29.7185 275.904 29.7119 275.731V275.731Z" fill="#D4A373"/>
<path opacity="0.2" d="M29.7119 275.731V276.986C29.7245 277.153 29.7819 277.314 29.878 277.452C29.974 277.589 30.1053 277.699 30.258 277.768V277.768L72.1174 301.938L75.0694 303.635C75.4952 303.856 75.9696 303.968 76.4494 303.96V302.727C75.9682 302.74 75.4921 302.626 75.0694 302.395L73.2096 301.34L30.258 276.543C30.1005 276.472 29.966 276.358 29.8695 276.215C29.7731 276.072 29.7185 275.904 29.7119 275.731V275.731Z" fill="black"/>
<path d="M111.445 268.728L75.1358 289.407L26.8484 261.695L63.158 241.008L111.445 268.728Z" fill="#D4A373"/>
<path opacity="0.2" d="M111.445 268.728L75.1358 289.407L26.8484 261.695L63.158 241.008L111.445 268.728Z" fill="white"/>
<path d="M74.8037 288.137L110.08 267.938C109.342 265.847 109.391 263.409 110.228 260.625L75.1358 280.676C75.1358 280.676 74.597 282.418 74.8037 288.137Z" fill="#F5F5F5"/>
<path d="M76.5749 278.373C75.7854 278.88 75.1279 279.567 74.6569 280.378C74.1859 281.189 73.9149 282.101 73.8664 283.038V288.484C73.8664 290.204 75.0767 290.897 76.5749 290.041L111.438 270.071V268.728L76.9439 288.381C76.0435 288.89 75.3203 288.477 75.3203 287.443V282.396C75.352 281.834 75.5164 281.287 75.7999 280.801C76.0834 280.315 76.4779 279.903 76.9513 279.599L111.438 259.938V258.403L76.5749 278.373Z" fill="#D4A373"/>
<path opacity="0.4" d="M76.5749 278.373C75.7854 278.88 75.1279 279.567 74.6569 280.378C74.1859 281.189 73.9149 282.101 73.8664 283.038V288.484C73.8664 290.204 75.0767 290.897 76.5749 290.041L111.438 270.071V268.728L76.9439 288.381C76.0435 288.89 75.3203 288.477 75.3203 287.443V282.396C75.352 281.834 75.5164 281.287 75.7999 280.801C76.0834 280.315 76.4779 279.903 76.9513 279.599L111.438 259.938V258.403L76.5749 278.373Z" fill="white"/>
<path d="M111.438 258.411L63.1509 230.699L28.2878 250.662C27.5008 251.171 26.8452 251.858 26.3745 252.669C25.9038 253.48 25.6313 254.39 25.5793 255.326V260.75C25.5441 261.085 25.5995 261.423 25.7397 261.73C25.8799 262.036 26.0997 262.299 26.3763 262.492L74.6637 290.204C74.3871 290.011 74.1672 289.748 74.027 289.442C73.8868 289.135 73.8314 288.797 73.8666 288.462V283.038C73.9151 282.101 74.1861 281.189 74.6571 280.378C75.1281 279.567 75.7856 278.88 76.5751 278.373L111.438 258.411Z" fill="#D4A373"/>
<path opacity="0.85" d="M111.438 258.411L63.1509 230.699L28.2878 250.662C27.5008 251.171 26.8452 251.858 26.3745 252.669C25.9038 253.48 25.6313 254.39 25.5793 255.326V260.75C25.5441 261.085 25.5995 261.423 25.7397 261.73C25.8799 262.036 26.0997 262.299 26.3763 262.492L74.6637 290.204C74.3871 290.011 74.1672 289.748 74.027 289.442C73.8868 289.135 73.8314 288.797 73.8666 288.462V283.038C73.9151 282.101 74.1861 281.189 74.6571 280.378C75.1281 279.567 75.7856 278.88 76.5751 278.373L111.438 258.411Z" fill="white"/>
<path d="M74.6561 280.381C74.1703 281.184 73.8984 282.099 73.8664 283.038V288.484C73.8312 288.819 73.8866 289.158 74.0268 289.464C74.167 289.77 74.3869 290.033 74.6635 290.226L26.3761 262.514C26.096 262.32 25.8738 262.053 25.7335 261.742C25.5931 261.432 25.5397 261.089 25.5791 260.75V255.304C25.6123 254.364 25.8868 253.449 26.3761 252.647L74.6561 280.381Z" fill="#D4A373"/>
<path opacity="0.6" d="M74.6561 280.381C74.1703 281.184 73.8984 282.099 73.8664 283.038V288.484C73.8312 288.819 73.8866 289.158 74.0268 289.464C74.167 289.77 74.3869 290.033 74.6635 290.226L26.3761 262.514C26.096 262.32 25.8738 262.053 25.7335 261.742C25.5931 261.432 25.5397 261.089 25.5791 260.75V255.304C25.6123 254.364 25.8868 253.449 26.3761 252.647L74.6561 280.381Z" fill="white"/>
<path d="M32.7377 256.322C31.8595 260.137 31.8742 263.429 32.7377 266.226L34.9517 267.525C34.0882 264.728 34.0735 261.429 34.9517 257.621L32.7377 256.322Z" fill="white"/>
<path d="M64.8112 274.772C63.9329 278.587 63.9477 281.879 64.8112 284.676L67.0252 285.975C66.1617 283.178 66.1469 279.886 67.0252 276.071L64.8112 274.772Z" fill="white"/>
</g>
<defs>
<clipPath id="clip0_3_19">
<rect width="369" height="347" fill="white"/>
</clipPath>
</defs>
</svg>
